# xmcd
#
# Track frame offsets: 
#        150
#        9749
#        18434
#        27839
#        39222
#        50213
#        61925
#        73024
#        85406
#        96478
#        108087
#        119189
#        133105
#        143527
#        153652
#        165143
#        176283
#        186430
#        198178
#        213524
#        224943
#        237595
#        247883
#        257968
#        268912
#
# Disc length: 3742 seconds
#
# Revision: 3
# Processed by: cddbd v1.5.2PL0 Copyright (c) Steve Scherf et al.
# Submitted via: ExactAudioCopy v1.1
#
DISCID=780e9c19
DTITLE=Lefty Frizzell - 3 Classic Albums Plus Singles_CD4
DYEAR=2015
DGENRE=Country
TTITLE0=Now That You Are Gone
TTITLE1=From An Angel To A Devil
TTITLE2=Love By Appointment
TTITLE3=Sick, Sober And Sorry
TTITLE4=No One To Talk To (But The Blues)
TTITLE5=Tell Me, Dear
TTITLE6=Time Out For The Blues
TTITLE7=Silence
TTITLE8=The Torch Within My Heart
TTITLE9=Cigarettes And Coffee Blues
TTITLE10=You're Humbuggin' Me
TTITLE11=The Long Black Veil
TTITLE12=Knock Again, True Love
TTITLE13=Farther Than My Eyes Can See
TTITLE14=Ballad Of The Blues And Grey
TTITLE15=My Blues Will Pass
TTITLE16=She's Gone
TTITLE17=What You Gonna Do, Leroy
TTITLE18=That's All I Can Remember
TTITLE19=Heaven's Plan
TTITLE20=Looking For You
TTITLE21=I Feel Sorry For Me
TTITLE22=So What, Let It Rain
TTITLE23=Stranger
TTITLE24=Just Passing Through
EXTD=YEAR: 2015
EXTT0=
EXTT1=
EXTT2=
EXTT3=
EXTT4=
EXTT5=
EXTT6=
EXTT7=
EXTT8=
EXTT9=
EXTT10=
EXTT11=
EXTT12=
EXTT13=
EXTT14=
EXTT15=
EXTT16=
EXTT17=
EXTT18=
EXTT19=
EXTT20=
EXTT21=
EXTT22=
EXTT23=
EXTT24=
PLAYORDER=
